<svg width="944" height="482" viewBox="0 0 944 482" class="keymap" xmlns="http://www.w3.org/2000/svg" xmlns:xlink="http://www.w3.org/1999/xlink">
<defs>/* start glyphs */
<svg id="mdi:alpha-a-circle">
<svg xmlns="http://www.w3.org/2000/svg" id="mdi-alpha-a-circle" viewBox="0 0 24 24"><path d="M12,2A10,10 0 0,1 22,12A10,10 0 0,1 12,22A10,10 0 0,1 2,12A10,10 0 0,1 12,2M11,7A2,2 0 0,0 9,9V17H11V13H13V17H15V9A2,2 0 0,0 13,7H11M11,9H13V11H11V9Z" /></svg>
</svg>
<svg id="mdi:alpha-b-circle">
<svg xmlns="http://www.w3.org/2000/svg" id="mdi-alpha-b-circle" viewBox="0 0 24 24"><path d="M12,2A10,10 0 0,1 22,12A10,10 0 0,1 12,22A10,10 0 0,1 2,12A10,10 0 0,1 12,2M15,10.5V9A2,2 0 0,0 13,7H9V17H13A2,2 0 0,0 15,15V13.5C15,12.7 14.3,12 13.5,12C14.3,12 15,11.3 15,10.5M13,15H11V13H13V15M13,11H11V9H13V11Z" /></svg>
</svg>
<svg id="mdi:alpha-l-box">
<svg xmlns="http://www.w3.org/2000/svg" id="mdi-alpha-l-box" viewBox="0 0 24 24"><path d="M9,7V17H15V15H11V7H9M5,3H19A2,2 0 0,1 21,5V19A2,2 0 0,1 19,21H5A2,2 0 0,1 3,19V5A2,2 0 0,1 5,3Z" /></svg>
</svg>
<svg id="mdi:alpha-l-box-outline">
<svg xmlns="http://www.w3.org/2000/svg" id="mdi-alpha-l-box-outline" viewBox="0 0 24 24"><path d="M9,7H11V15H15V17H9V7M5,3H19A2,2 0 0,1 21,5V19A2,2 0 0,1 19,21H5A2,2 0 0,1 3,19V5A2,2 0 0,1 5,3M5,5V19H19V5H5Z" /></svg>
</svg>
<svg id="mdi:alpha-l-circle">
<svg xmlns="http://www.w3.org/2000/svg" id="mdi-alpha-l-circle" viewBox="0 0 24 24"><path d="M9,7V17H15V15H11V7H9M12,2A10,10 0 0,1 22,12A10,10 0 0,1 12,22A10,10 0 0,1 2,12A10,10 0 0,1 12,2Z" /></svg>
</svg>
<svg id="mdi:alpha-l-circle-outline">
<svg xmlns="http://www.w3.org/2000/svg" id="mdi-alpha-l-circle-outline" viewBox="0 0 24 24"><path d="M9,7H11V15H15V17H9V7M12,2A10,10 0 0,1 22,12A10,10 0 0,1 12,22A10,10 0 0,1 2,12A10,10 0 0,1 12,2M12,4A8,8 0 0,0 4,12A8,8 0 0,0 12,20A8,8 0 0,0 20,12A8,8 0 0,0 12,4Z" /></svg>
</svg>
<svg id="mdi:alpha-o-box">
<svg xmlns="http://www.w3.org/2000/svg" id="mdi-alpha-o-box" viewBox="0 0 24 24"><path d="M11,7A2,2 0 0,0 9,9V15A2,2 0 0,0 11,17H13A2,2 0 0,0 15,15V9A2,2 0 0,0 13,7H11M11,9H13V15H11V9M5,3H19A2,2 0 0,1 21,5V19A2,2 0 0,1 19,21H5A2,2 0 0,1 3,19V5A2,2 0 0,1 5,3Z" /></svg>
</svg>
<svg id="mdi:alpha-r-box">
<svg xmlns="http://www.w3.org/2000/svg" id="mdi-alpha-r-box" viewBox="0 0 24 24"><path d="M9,7V17H11V13H11.8L13,17H15L13.76,12.85C14.5,12.55 15,11.84 15,11V9A2,2 0 0,0 13,7H9M11,9H13V11H11V9M5,3H19A2,2 0 0,1 21,5V19A2,2 0 0,1 19,21H5A2,2 0 0,1 3,19V5A2,2 0 0,1 5,3Z" /></svg>
</svg>
<svg id="mdi:alpha-r-box-outline">
<svg xmlns="http://www.w3.org/2000/svg" id="mdi-alpha-r-box-outline" viewBox="0 0 24 24"><path d="M9,7H13A2,2 0 0,1 15,9V11C15,11.84 14.5,12.55 13.76,12.85L15,17H13L11.8,13H11V17H9V7M11,9V11H13V9H11M5,3H19A2,2 0 0,1 21,5V19A2,2 0 0,1 19,21H5A2,2 0 0,1 3,19V5A2,2 0 0,1 5,3M5,5V19H19V5H5Z" /></svg>
</svg>
<svg id="mdi:alpha-r-circle">
<svg xmlns="http://www.w3.org/2000/svg" id="mdi-alpha-r-circle" viewBox="0 0 24 24"><path d="M9,7V17H11V13H11.8L13,17H15L13.76,12.85C14.5,12.55 15,11.84 15,11V9A2,2 0 0,0 13,7H9M11,9H13V11H11V9M12,2A10,10 0 0,1 22,12A10,10 0 0,1 12,22A10,10 0 0,1 2,12A10,10 0 0,1 12,2Z" /></svg>
</svg>
<svg id="mdi:alpha-r-circle-outline">
<svg xmlns="http://www.w3.org/2000/svg" id="mdi-alpha-r-circle-outline" viewBox="0 0 24 24"><path d="M9,7H13A2,2 0 0,1 15,9V11C15,11.84 14.5,12.55 13.76,12.85L15,17H13L11.8,13H11V17H9V7M11,9V11H13V9H11M12,2A10,10 0 0,1 22,12A10,10 0 0,1 12,22A10,10 0 0,1 2,12A10,10 0 0,1 12,2M12,4A8,8 0 0,0 4,12C4,16.41 7.58,20 12,20A8,8 0 0,0 20,12A8,8 0 0,0 12,4Z" /></svg>
</svg>
<svg id="mdi:alpha-x-box">
<svg xmlns="http://www.w3.org/2000/svg" id="mdi-alpha-x-box" viewBox="0 0 24 24"><path d="M9,7L11,12L9,17H11L12,14.5L13,17H15L13,12L15,7H13L12,9.5L11,7H9M5,3H19A2,2 0 0,1 21,5V19A2,2 0 0,1 19,21H5A2,2 0 0,1 3,19V5A2,2 0 0,1 5,3Z" /></svg>
</svg>
<svg id="mdi:alpha-x-circle">
<svg xmlns="http://www.w3.org/2000/svg" id="mdi-alpha-x-circle" viewBox="0 0 24 24"><path d="M9,7L11,12L9,17H11L12,14.5L13,17H15L13,12L15,7H13L12,9.5L11,7H9M12,2A10,10 0 0,1 22,12A10,10 0 0,1 12,22A10,10 0 0,1 2,12A10,10 0 0,1 12,2Z" /></svg>
</svg>
<svg id="mdi:alpha-y-circle">
<svg xmlns="http://www.w3.org/2000/svg" id="mdi-alpha-y-circle" viewBox="0 0 24 24"><path d="M9,7L11,13V17H13V13L15,7H13L12,10L11,7H9M12,2A10,10 0 0,1 22,12A10,10 0 0,1 12,22A10,10 0 0,1 2,12A10,10 0 0,1 12,2Z" /></svg>
</svg>
<svg id="mdi:alphabetical-variant">
<svg xmlns="http://www.w3.org/2000/svg" id="mdi-alphabetical-variant" viewBox="0 0 24 24"><path d="M3 7A2 2 0 0 0 1 9V17H3V13H5V17H7V9A2 2 0 0 0 5 7H3M3 9H5V11H3M15 10.5V9A2 2 0 0 0 13 7H9V17H13A2 2 0 0 0 15 15V13.5A1.54 1.54 0 0 0 13.5 12A1.54 1.54 0 0 0 15 10.5M13 15H11V13H13V15M13 11H11V9H13M19 7A2 2 0 0 0 17 9V15A2 2 0 0 0 19 17H21A2 2 0 0 0 23 15V14H21V15H19V9H21V10H23V9A2 2 0 0 0 21 7Z" /></svg>
</svg>
<svg id="mdi:apple-keyboard-caps">
<svg xmlns="http://www.w3.org/2000/svg" id="mdi-apple-keyboard-caps" viewBox="0 0 24 24"><path d="M15,14V8H17.17L12,2.83L6.83,8H9V14H15M12,0L22,10H17V16H7V10H2L12,0M7,18H17V24H7V18M15,20H9V22H15V20Z" /></svg>
</svg>
<svg id="mdi:apple-keyboard-command">
<svg xmlns="http://www.w3.org/2000/svg" id="mdi-apple-keyboard-command" viewBox="0 0 24 24"><path d="M6,2A4,4 0 0,1 10,6V8H14V6A4,4 0 0,1 18,2A4,4 0 0,1 22,6A4,4 0 0,1 18,10H16V14H18A4,4 0 0,1 22,18A4,4 0 0,1 18,22A4,4 0 0,1 14,18V16H10V18A4,4 0 0,1 6,22A4,4 0 0,1 2,18A4,4 0 0,1 6,14H8V10H6A4,4 0 0,1 2,6A4,4 0 0,1 6,2M16,18A2,2 0 0,0 18,20A2,2 0 0,0 20,18A2,2 0 0,0 18,16H16V18M14,10H10V14H14V10M6,16A2,2 0 0,0 4,18A2,2 0 0,0 6,20A2,2 0 0,0 8,18V16H6M8,6A2,2 0 0,0 6,4A2,2 0 0,0 4,6A2,2 0 0,0 6,8H8V6M18,8A2,2 0 0,0 20,6A2,2 0 0,0 18,4A2,2 0 0,0 16,6V8H18Z" /></svg>
</svg>
<svg id="mdi:apple-keyboard-control">
<svg xmlns="http://www.w3.org/2000/svg" id="mdi-apple-keyboard-control" viewBox="0 0 24 24"><path d="M19.78,11.78L18.36,13.19L12,6.83L5.64,13.19L4.22,11.78L12,4L19.78,11.78Z" /></svg>
</svg>
<svg id="mdi:apple-keyboard-option">
<svg xmlns="http://www.w3.org/2000/svg" id="mdi-apple-keyboard-option" viewBox="0 0 24 24"><path d="M3,4H9.11L16.15,18H21V20H14.88L7.84,6H3V4M14,4H21V6H14V4Z" /></svg>
</svg>
<svg id="mdi:apple-keyboard-shift">
<svg xmlns="http://www.w3.org/2000/svg" id="mdi-apple-keyboard-shift" viewBox="0 0 24 24"><path d="M15,18V12H17.17L12,6.83L6.83,12H9V18H15M12,4L22,14H17V20H7V14H2L12,4Z" /></svg>
</svg>
<svg id="mdi:application-variable-outline">
<svg xmlns="http://www.w3.org/2000/svg" id="mdi-application-variable-outline" viewBox="0 0 24 24"><path d="M21 2H3C1.9 2 1 2.9 1 4V20C1 21.1 1.9 22 3 22H21C22.1 22 23 21.1 23 20V4C23 2.9 22.1 2 21 2M21 20H3V6H21V20M16.6 8C18.1 9.3 19 11.1 19 13C19 14.9 18.1 16.7 16.6 18L15 17.4C16.3 16.4 17 14.7 17 13S16.3 9.6 15 8.6L16.6 8M7.4 8L9 8.6C7.7 9.6 7 11.3 7 13S7.7 16.4 9 17.4L7.4 18C5.9 16.7 5 14.9 5 13S5.9 9.3 7.4 8M12.1 12L13.5 10H15L12.8 13L14.1 16H12.8L12 14L10.6 16H9L11.3 12.9L10 10H11.3L12.1 12Z" /></svg>
</svg>
<svg id="mdi:apps">
<svg xmlns="http://www.w3.org/2000/svg" id="mdi-apps" viewBox="0 0 24 24"><path d="M16,20H20V16H16M16,14H20V10H16M10,8H14V4H10M16,8H20V4H16M10,14H14V10H10M4,14H8V10H4M4,20H8V16H4M10,20H14V16H10M4,8H8V4H4V8Z" /></svg>
</svg>
<svg id="mdi:apps-box">
<svg xmlns="http://www.w3.org/2000/svg" id="mdi-apps-box" viewBox="0 0 24 24"><path d="M5,3H19A2,2 0 0,1 21,5V19A2,2 0 0,1 19,21H5A2,2 0 0,1 3,19V5A2,2 0 0,1 5,3M7,7V9H9V7H7M11,7V9H13V7H11M15,7V9H17V7H15M7,11V13H9V11H7M11,11V13H13V11H11M15,11V13H17V11H15M7,15V17H9V15H7M11,15V17H13V15H11M15,15V17H17V15H15Z" /></svg>
</svg>
<svg id="mdi:arrow-down-bold-circle">
<svg xmlns="http://www.w3.org/2000/svg" id="mdi-arrow-down-bold-circle" viewBox="0 0 24 24"><path d="M12,2A10,10 0 0,1 22,12A10,10 0 0,1 12,22A10,10 0 0,1 2,12A10,10 0 0,1 12,2M12,17L17,12H14V8H10V12H7L12,17Z" /></svg>
</svg>
<svg id="mdi:arrow-down-bold-outline">
<svg xmlns="http://www.w3.org/2000/svg" id="mdi-arrow-down-bold-outline" viewBox="0 0 24 24"><path d="M22,11L12,21L2,11H8V3H16V11H22M12,18L17,13H14V5H10V13H7L12,18Z" /></svg>
</svg>
<svg id="mdi:arrow-down-box">
<svg xmlns="http://www.w3.org/2000/svg" id="mdi-arrow-down-box" viewBox="0 0 24 24"><path d="M3,5A2,2 0 0,1 5,3H19A2,2 0 0,1 21,5V19A2,2 0 0,1 19,21H5C3.89,21 3,20.1 3,19V5M11,6V14.5L7.5,11L6.08,12.42L12,18.34L17.92,12.42L16.5,11L13,14.5V6H11Z" /></svg>
</svg>
<svg id="mdi:arrow-down-circle-outline">
<svg xmlns="http://www.w3.org/2000/svg" id="mdi-arrow-down-circle-outline" viewBox="0 0 24 24"><path d="M11,6H13V14L16.5,10.5L17.92,11.92L12,17.84L6.08,11.92L7.5,10.5L11,14V6M12,22A10,10 0 0,1 2,12A10,10 0 0,1 12,2A10,10 0 0,1 22,12A10,10 0 0,1 12,22M12,20A8,8 0 0,0 20,12A8,8 0 0,0 12,4A8,8 0 0,0 4,12A8,8 0 0,0 12,20Z" /></svg>
</svg>
<svg id="mdi:arrow-down-drop-circle">
<svg xmlns="http://www.w3.org/2000/svg" id="mdi-arrow-down-drop-circle" viewBox="0 0 24 24"><path d="M12,2A10,10 0 0,1 22,12A10,10 0 0,1 12,22A10,10 0 0,1 2,12A10,10 0 0,1 12,2M7,10L12,15L17,10H7Z" /></svg>
</svg>
<svg id="mdi:arrow-left-bold-circle">
<svg xmlns="http://www.w3.org/2000/svg" id="mdi-arrow-left-bold-circle" viewBox="0 0 24 24"><path d="M22,12A10,10 0 0,1 12,22A10,10 0 0,1 2,12A10,10 0 0,1 12,2A10,10 0 0,1 22,12M7,12L12,17V14H16V10H12V7L7,12Z" /></svg>
</svg>
<svg id="mdi:arrow-left-bold-outline">
<svg xmlns="http://www.w3.org/2000/svg" id="mdi-arrow-left-bold-outline" viewBox="0 0 24 24"><path d="M13,22L3,12L13,2V8H21V16H13V22M6,12L11,17V14H19V10H11V7L6,12Z" /></svg>
</svg>
<svg id="mdi:arrow-left-box">
<svg xmlns="http://www.w3.org/2000/svg" id="mdi-arrow-left-box" viewBox="0 0 24 24"><path d="M19,3A2,2 0 0,1 21,5V19A2,2 0 0,1 19,21H5A2,2 0 0,1 3,19V5C3,3.89 3.9,3 5,3H19M18,11H9.5L13,7.5L11.58,6.08L5.66,12L11.58,17.92L13,16.5L9.5,13H18V11Z" /></svg>
</svg>
<svg id="mdi:arrow-left-circle-outline">
<svg xmlns="http://www.w3.org/2000/svg" id="mdi-arrow-left-circle-outline" viewBox="0 0 24 24"><path d="M18,11V13H10L13.5,16.5L12.08,17.92L6.16,12L12.08,6.08L13.5,7.5L10,11H18M2,12A10,10 0 0,1 12,2A10,10 0 0,1 22,12A10,10 0 0,1 12,22A10,10 0 0,1 2,12M4,12A8,8 0 0,0 12,20A8,8 0 0,0 20,12A8,8 0 0,0 12,4A8,8 0 0,0 4,12Z" /></svg>
</svg>
<svg id="mdi:arrow-left-drop-circle">
<svg xmlns="http://www.w3.org/2000/svg" id="mdi-arrow-left-drop-circle" viewBox="0 0 24 24"><path d="M22,12A10,10 0 0,1 12,22A10,10 0 0,1 2,12A10,10 0 0,1 12,2A10,10 0 0,1 22,12M14,7L9,12L14,17V7Z" /></svg>
</svg>
<svg id="mdi:arrow-right-bold-circle">
<svg xmlns="http://www.w3.org/2000/svg" id="mdi-arrow-right-bold-circle" viewBox="0 0 24 24"><path d="M2,12A10,10 0 0,1 12,2A10,10 0 0,1 22,12A10,10 0 0,1 12,22A10,10 0 0,1 2,12M17,12L12,7V10H8V14H12V17L17,12Z" /></svg>
</svg>
<svg id="mdi:arrow-right-bold-outline">
<svg xmlns="http://www.w3.org/2000/svg" id="mdi-arrow-right-bold-outline" viewBox="0 0 24 24"><path d="M11,16H3V8H11V2L21,12L11,22V16M13,7V10H5V14H13V17L18,12L13,7Z" /></svg>
</svg>
<svg id="mdi:arrow-right-box">
<svg xmlns="http://www.w3.org/2000/svg" id="mdi-arrow-right-box" viewBox="0 0 24 24"><path d="M5,21A2,2 0 0,1 3,19V5A2,2 0 0,1 5,3H19A2,2 0 0,1 21,5V19C21,20.11 20.1,21 19,21H5M6,13H14.5L11,16.5L12.42,17.92L18.34,12L12.42,6.08L11,7.5L14.5,11H6V13Z" /></svg>
</svg>
<svg id="mdi:arrow-right-circle-outline">
<svg xmlns="http://www.w3.org/2000/svg" id="mdi-arrow-right-circle-outline" viewBox="0 0 24 24"><path d="M6,13V11H14L10.5,7.5L11.92,6.08L17.84,12L11.92,17.92L10.5,16.5L14,13H6M22,12A10,10 0 0,1 12,22A10,10 0 0,1 2,12A10,10 0 0,1 12,2A10,10 0 0,1 22,12M20,12A8,8 0 0,0 12,4A8,8 0 0,0 4,12A8,8 0 0,0 12,20A8,8 0 0,0 20,12Z" /></svg>
</svg>
<svg id="mdi:arrow-right-drop-circle">
<svg xmlns="http://www.w3.org/2000/svg" id="mdi-arrow-right-drop-circle" viewBox="0 0 24 24"><path d="M2,12A10,10 0 0,1 12,2A10,10 0 0,1 22,12A10,10 0 0,1 12,22A10,10 0 0,1 2,12M10,17L15,12L10,7V17Z" /></svg>
</svg>
<svg id="mdi:arrow-up-bold-circle">
<svg xmlns="http://www.w3.org/2000/svg" id="mdi-arrow-up-bold-circle" viewBox="0 0 24 24"><path d="M12,22A10,10 0 0,1 2,12A10,10 0 0,1 12,2A10,10 0 0,1 22,12A10,10 0 0,1 12,22M12,7L7,12H10V16H14V12H17L12,7Z" /></svg>
</svg>
<svg id="mdi:arrow-up-bold-outline">
<svg xmlns="http://www.w3.org/2000/svg" id="mdi-arrow-up-bold-outline" viewBox="0 0 24 24"><path d="M16,13V21H8V13H2L12,3L22,13H16M7,11H10V19H14V11H17L12,6L7,11Z" /></svg>
</svg>
<svg id="mdi:arrow-up-box">
<svg xmlns="http://www.w3.org/2000/svg" id="mdi-arrow-up-box" viewBox="0 0 24 24"><path d="M21,19A2,2 0 0,1 19,21H5A2,2 0 0,1 3,19V5A2,2 0 0,1 5,3H19C20.11,3 21,3.9 21,5V19M13,18V9.5L16.5,13L17.92,11.58L12,5.66L6.08,11.58L7.5,13L11,9.5V18H13Z" /></svg>
</svg>
<svg id="mdi:arrow-up-circle-outline">
<svg xmlns="http://www.w3.org/2000/svg" id="mdi-arrow-up-circle-outline" viewBox="0 0 24 24"><path d="M13,18H11V10L7.5,13.5L6.08,12.08L12,6.16L17.92,12.08L16.5,13.5L13,10V18M12,2A10,10 0 0,1 22,12A10,10 0 0,1 12,22A10,10 0 0,1 2,12A10,10 0 0,1 12,2M12,4A8,8 0 0,0 4,12A8,8 0 0,0 12,20A8,8 0 0,0 20,12A8,8 0 0,0 12,4Z" /></svg>
</svg>
<svg id="mdi:arrow-up-drop-circle">
<svg xmlns="http://www.w3.org/2000/svg" id="mdi-arrow-up-drop-circle" viewBox="0 0 24 24"><path d="M12,22A10,10 0 0,1 2,12A10,10 0 0,1 12,2A10,10 0 0,1 22,12A10,10 0 0,1 12,22M17,14L12,9L7,14H17Z" /></svg>
</svg>
<svg id="mdi:backspace">
<svg xmlns="http://www.w3.org/2000/svg" id="mdi-backspace" viewBox="0 0 24 24"><path d="M22,3H7C6.31,3 5.77,3.35 5.41,3.88L0,12L5.41,20.11C5.77,20.64 6.31,21 7,21H22A2,2 0 0,0 24,19V5A2,2 0 0,0 22,3M19,15.59L17.59,17L14,13.41L10.41,17L9,15.59L12.59,12L9,8.41L10.41,7L14,10.59L17.59,7L19,8.41L15.41,12" /></svg>
</svg>
<svg id="mdi:backspace-outline">
<svg xmlns="http://www.w3.org/2000/svg" id="mdi-backspace-outline" viewBox="0 0 24 24"><path d="M19,15.59L17.59,17L14,13.41L10.41,17L9,15.59L12.59,12L9,8.41L10.41,7L14,10.59L17.59,7L19,8.41L15.41,12L19,15.59M22,3A2,2 0 0,1 24,5V19A2,2 0 0,1 22,21H7C6.31,21 5.77,20.64 5.41,20.11L0,12L5.41,3.88C5.77,3.35 6.31,3 7,3H22M22,5H7L2.28,12L7,19H22V5Z" /></svg>
</svg>
<svg id="mdi:backspace-reverse-outline">
<svg xmlns="http://www.w3.org/2000/svg" id="mdi-backspace-reverse-outline" viewBox="0 0 24 24"><path d="M5,15.59L6.41,17L10,13.41L13.59,17L15,15.59L11.41,12L15,8.41L13.59,7L10,10.59L6.41,7L5,8.41L8.59,12L5,15.59M2,3A2,2 0 0,0 0,5V19A2,2 0 0,0 2,21H17C17.69,21 18.23,20.64 18.59,20.11L24,12L18.59,3.88C18.23,3.35 17.69,3 17,3H2M2,5H17L21.72,12L17,19H2V5Z" /></svg>
</svg>
<svg id="mdi:bash">
<svg xmlns="http://www.w3.org/2000/svg" id="mdi-bash" viewBox="0 0 24 24"><path d="M5 9H7.31L7.63 6H9.63L9.31 9H11.31L11.63 6H13.63L13.31 9H15V11H13.1L12.9 13H15V15H12.69L12.37 18H10.37L10.69 15H8.69L8.37 18H6.37L6.69 15H5V13H6.9L7.1 11H5V9M9.1 11L8.9 13H10.9L11.1 11M19 6H17V14H19M19 16H17V18H19Z" /></svg>
</svg>
<svg id="mdi:block-helper">
<svg xmlns="http://www.w3.org/2000/svg" id="mdi-block-helper" viewBox="0 0 24 24"><path d="M12,0A12,12 0 0,1 24,12A12,12 0 0,1 12,24A12,12 0 0,1 0,12A12,12 0 0,1 12,0M12,2A10,10 0 0,0 2,12C2,14.4 2.85,16.6 4.26,18.33L18.33,4.26C16.6,2.85 14.4,2 12,2M12,22A10,10 0 0,0 22,12C22,9.6 21.15,7.4 19.74,5.67L5.67,19.74C7.4,21.15 9.6,22 12,22Z" /></svg>
</svg>
<svg id="mdi:bluetooth">
<svg xmlns="http://www.w3.org/2000/svg" id="mdi-bluetooth" viewBox="0 0 24 24"><path d="M14.88,16.29L13,18.17V14.41M13,5.83L14.88,7.71L13,9.58M17.71,7.71L12,2H11V9.58L6.41,5L5,6.41L10.59,12L5,17.58L6.41,19L11,14.41V22H12L17.71,16.29L13.41,12L17.71,7.71Z" /></svg>
</svg>
<svg id="mdi:bug">
<svg xmlns="http://www.w3.org/2000/svg" id="mdi-bug" viewBox="0 0 24 24"><path d="M14,12H10V10H14M14,16H10V14H14M20,8H17.19C16.74,7.22 16.12,6.55 15.37,6.04L17,4.41L15.59,3L13.42,5.17C12.96,5.06 12.5,5 12,5C11.5,5 11.04,5.06 10.59,5.17L8.41,3L7,4.41L8.62,6.04C7.88,6.55 7.26,7.22 6.81,8H4V10H6.09C6.04,10.33 6,10.66 6,11V12H4V14H6V15C6,15.34 6.04,15.67 6.09,16H4V18H6.81C7.85,19.79 9.78,21 12,21C14.22,21 16.15,19.79 17.19,18H20V16H17.91C17.96,15.67 18,15.34 18,15V14H20V12H18V11C18,10.66 17.96,10.33 17.91,10H20V8Z" /></svg>
</svg>
<svg id="mdi:card-search-outline">
<svg xmlns="http://www.w3.org/2000/svg" id="mdi-card-search-outline" viewBox="0 0 24 24"><path d="M11.5 16C12.37 16 13.19 15.74 13.88 15.3L16.32 17.74L17.74 16.32L15.3 13.89C15.74 13.19 16 12.38 16 11.5C16 9 14 7 11.5 7S7 9 7 11.5 9 16 11.5 16M11.5 9C12.88 9 14 10.12 14 11.5S12.88 14 11.5 14 9 12.88 9 11.5 10.12 9 11.5 9M20 4H4C2.9 4 2 4.9 2 6V18C2 19.1 2.9 20 4 20H20C21.1 20 22 19.1 22 18V6C22 4.9 21.1 4 20 4M20 18H4V6H20V18Z" /></svg>
</svg>
<svg id="mdi:cat">
<svg xmlns="http://www.w3.org/2000/svg" id="mdi-cat" viewBox="0 0 24 24"><path d="M12,8L10.67,8.09C9.81,7.07 7.4,4.5 5,4.5C5,4.5 3.03,7.46 4.96,11.41C4.41,12.24 4.07,12.67 4,13.66L2.07,13.95L2.28,14.93L4.04,14.67L4.18,15.38L2.61,16.32L3.08,17.21L4.53,16.32C5.68,18.76 8.59,20 12,20C15.41,20 18.32,18.76 19.47,16.32L20.92,17.21L21.39,16.32L19.82,15.38L19.96,14.67L21.72,14.93L21.93,13.95L20,13.66C19.93,12.67 19.59,12.24 19.04,11.41C20.97,7.46 19,4.5 19,4.5C16.6,4.5 14.19,7.07 13.33,8.09L12,8M9,11A1,1 0 0,1 10,12A1,1 0 0,1 9,13A1,1 0 0,1 8,12A1,1 0 0,1 9,11M15,11A1,1 0 0,1 16,12A1,1 0 0,1 15,13A1,1 0 0,1 14,12A1,1 0 0,1 15,11M11,14H13L12.3,15.39C12.5,16.03 13.06,16.5 13.75,16.5A1.5,1.5 0 0,0 15.25,15H15.75A2,2 0 0,1 13.75,17C13,17 12.35,16.59 12,16V16H12C11.65,16.59 11,17 10.25,17A2,2 0 0,1 8.25,15H8.75A1.5,1.5 0 0,0 10.25,16.5C10.94,16.5 11.5,16.03 11.7,15.39L11,14Z" /></svg>
</svg>
<svg id="mdi:cellphone-screenshot">
<svg xmlns="http://www.w3.org/2000/svg" id="mdi-cellphone-screenshot" viewBox="0 0 24 24"><path d="M7,1A2,2 0 0,0 5,3V21A2,2 0 0,0 7,23H17A2,2 0 0,0 19,21V3A2,2 0 0,0 17,1H7M7,4H17V20H7V4M9,6V10H10.5V7.5H13V6H9M13.5,14V16.5H11V18H15V14H13.5Z" /></svg>
</svg>
<svg id="mdi:chevron-down-circle">
<svg xmlns="http://www.w3.org/2000/svg" id="mdi-chevron-down-circle" viewBox="0 0 24 24"><path d="M22,12A10,10 0 0,1 12,22A10,10 0 0,1 2,12A10,10 0 0,1 12,2A10,10 0 0,1 22,12M6,10L12,16L18,10L16.6,8.6L12,13.2L7.4,8.6L6,10Z" /></svg>
</svg>
<svg id="mdi:chevron-left-circle">
<svg xmlns="http://www.w3.org/2000/svg" id="mdi-chevron-left-circle" viewBox="0 0 24 24"><path d="M22,12A10,10 0 0,1 12,22A10,10 0 0,1 2,12A10,10 0 0,1 12,2A10,10 0 0,1 22,12M15.4,16.6L10.8,12L15.4,7.4L14,6L8,12L14,18L15.4,16.6Z" /></svg>
</svg>
<svg id="mdi:chevron-right-circle">
<svg xmlns="http://www.w3.org/2000/svg" id="mdi-chevron-right-circle" viewBox="0 0 24 24"><path d="M22,12A10,10 0 0,1 12,22A10,10 0 0,1 2,12A10,10 0 0,1 12,2A10,10 0 0,1 22,12M10,18L16,12L10,6L8.6,7.4L13.2,12L8.6,16.6L10,18Z" /></svg>
</svg>
<svg id="mdi:chevron-triple-down">
<svg xmlns="http://www.w3.org/2000/svg" id="mdi-chevron-triple-down" viewBox="0 0 24 24"><path d="M7.41,14.58L12,19.17L16.59,14.58L18,16L12,22L6,16L7.41,14.58M7.41,8.58L12,13.17L16.59,8.58L18,10L12,16L6,10L7.41,8.58M7.41,2.58L12,7.17L16.59,2.58L18,4L12,10L6,4L7.41,2.58Z" /></svg>
</svg>
<svg id="mdi:chevron-triple-up">
<svg xmlns="http://www.w3.org/2000/svg" id="mdi-chevron-triple-up" viewBox="0 0 24 24"><path d="M16.59,9.42L12,4.83L7.41,9.42L6,8L12,2L18,8L16.59,9.42M16.59,15.42L12,10.83L7.41,15.42L6,14L12,8L18,14L16.59,15.42M16.59,21.42L12,16.83L7.41,21.42L6,20L12,14L18,20L16.59,21.42Z" /></svg>
</svg>
<svg id="mdi:chevron-up-circle">
<svg xmlns="http://www.w3.org/2000/svg" id="mdi-chevron-up-circle" viewBox="0 0 24 24"><path d="M22,12A10,10 0 0,1 12,22A10,10 0 0,1 2,12A10,10 0 0,1 12,2A10,10 0 0,1 22,12M7.4,15.4L12,10.8L16.6,15.4L18,14L12,8L6,14L7.4,15.4Z" /></svg>
</svg>
<svg id="mdi:code-block-braces">
<svg xmlns="http://www.w3.org/2000/svg" id="mdi-code-block-braces" viewBox="0 0 24 24"><path d="M5 3C3.9 3 3 3.9 3 5S2.1 7 1 7V9C2.1 9 3 9.9 3 11S3.9 13 5 13H7V11H5V10C5 8.9 4.1 8 3 8C4.1 8 5 7.1 5 6V5H7V3M11 3C12.1 3 13 3.9 13 5S13.9 7 15 7V9C13.9 9 13 9.9 13 11S12.1 13 11 13H9V11H11V10C11 8.9 11.9 8 13 8C11.9 8 11 7.1 11 6V5H9V3H11M22 6V18C22 19.11 21.11 20 20 20H4C2.9 20 2 19.11 2 18V15H4V18H20V6H17.03V4H20C21.11 4 22 4.89 22 6Z" /></svg>
</svg>
<svg id="mdi:compare">
<svg xmlns="http://www.w3.org/2000/svg" id="mdi-compare" viewBox="0 0 24 24"><path d="M19,3H14V5H19V18L14,12V21H19A2,2 0 0,0 21,19V5C21,3.89 20.1,3 19,3M10,18H5L10,12M10,3H5C3.89,3 3,3.89 3,5V19A2,2 0 0,0 5,21H10V23H12V1H10V3Z" /></svg>
</svg>
<svg id="mdi:content-copy">
<svg xmlns="http://www.w3.org/2000/svg" id="mdi-content-copy" viewBox="0 0 24 24"><path d="M19,21H8V7H19M19,5H8A2,2 0 0,0 6,7V21A2,2 0 0,0 8,23H19A2,2 0 0,0 21,21V7A2,2 0 0,0 19,5M16,1H4A2,2 0 0,0 2,3V17H4V3H16V1Z" /></svg>
</svg>
<svg id="mdi:content-cut">
<svg xmlns="http://www.w3.org/2000/svg" id="mdi-content-cut" viewBox="0 0 24 24"><path d="M19,3L13,9L15,11L22,4V3M12,12.5A0.5,0.5 0 0,1 11.5,12A0.5,0.5 0 0,1 12,11.5A0.5,0.5 0 0,1 12.5,12A0.5,0.5 0 0,1 12,12.5M6,20A2,2 0 0,1 4,18C4,16.89 4.9,16 6,16A2,2 0 0,1 8,18C8,19.11 7.1,20 6,20M6,8A2,2 0 0,1 4,6C4,4.89 4.9,4 6,4A2,2 0 0,1 8,6C8,7.11 7.1,8 6,8M9.64,7.64C9.87,7.14 10,6.59 10,6A4,4 0 0,0 6,2A4,4 0 0,0 2,6A4,4 0 0,0 6,10C6.59,10 7.14,9.87 7.64,9.64L10,12L7.64,14.36C7.14,14.13 6.59,14 6,14A4,4 0 0,0 2,18A4,4 0 0,0 6,22A4,4 0 0,0 10,18C10,17.41 9.87,16.86 9.64,16.36L12,14L19,21H22V20L9.64,7.64Z" /></svg>
</svg>
<svg id="mdi:content-paste">
<svg xmlns="http://www.w3.org/2000/svg" id="mdi-content-paste" viewBox="0 0 24 24"><path d="M19,20H5V4H7V7H17V4H19M12,2A1,1 0 0,1 13,3A1,1 0 0,1 12,4A1,1 0 0,1 11,3A1,1 0 0,1 12,2M19,2H14.82C14.4,0.84 13.3,0 12,0C10.7,0 9.6,0.84 9.18,2H5A2,2 0 0,0 3,4V20A2,2 0 0,0 5,22H19A2,2 0 0,0 21,20V4A2,2 0 0,0 19,2Z" /></svg>
</svg>
<svg id="mdi:content-save">
<svg xmlns="http://www.w3.org/2000/svg" id="mdi-content-save" viewBox="0 0 24 24"><path d="M15,9H5V5H15M12,19A3,3 0 0,1 9,16A3,3 0 0,1 12,13A3,3 0 0,1 15,16A3,3 0 0,1 12,19M17,3H5C3.89,3 3,3.9 3,5V19A2,2 0 0,0 5,21H19A2,2 0 0,0 21,19V7L17,3Z" /></svg>
</svg>
<svg id="mdi:dock-bottom">
<svg xmlns="http://www.w3.org/2000/svg" id="mdi-dock-bottom" viewBox="0 0 24 24"><path d="M20 4H4A2 2 0 0 0 2 6V18A2 2 0 0 0 4 20H20A2 2 0 0 0 22 18V6A2 2 0 0 0 20 4M20 13H4V6H20Z" /></svg>
</svg>
<svg id="mdi:dock-top">
<svg xmlns="http://www.w3.org/2000/svg" id="mdi-dock-top" viewBox="0 0 24 24"><path d="M4 20H20C21.11 20 22 19.11 22 18V6C22 4.89 21.11 4 20 4H4C2.9 4 2 4.89 2 6V18C2 19.11 2.9 20 4 20M4 11H20V18H4V11Z" /></svg>
</svg>
<svg id="mdi:duck">
<svg xmlns="http://www.w3.org/2000/svg" id="mdi-duck" viewBox="0 0 24 24"><path d="M8.5,5A1.5,1.5 0 0,0 7,6.5A1.5,1.5 0 0,0 8.5,8A1.5,1.5 0 0,0 10,6.5A1.5,1.5 0 0,0 8.5,5M10,2A5,5 0 0,1 15,7C15,8.7 14.15,10.2 12.86,11.1C14.44,11.25 16.22,11.61 18,12.5C21,14 22,12 22,12C22,12 21,21 15,21H9C9,21 4,21 4,16C4,13 7,12 6,10C2,10 2,6.5 2,6.5C3,7 4.24,7 5,6.65C5.19,4.05 7.36,2 10,2Z" /></svg>
</svg>
<svg id="mdi:exit-run">
<svg xmlns="http://www.w3.org/2000/svg" id="mdi-exit-run" viewBox="0 0 24 24"><path d="M13.34,8.17C12.41,8.17 11.65,7.4 11.65,6.47A1.69,1.69 0 0,1 13.34,4.78C14.28,4.78 15.04,5.54 15.04,6.47C15.04,7.4 14.28,8.17 13.34,8.17M10.3,19.93L4.37,18.75L4.71,17.05L8.86,17.9L10.21,11.04L8.69,11.64V14.5H7V10.54L11.4,8.67L12.07,8.59C12.67,8.59 13.17,8.93 13.5,9.44L14.36,10.79C15.04,12 16.39,12.82 18,12.82V14.5C16.14,14.5 14.44,13.67 13.34,12.4L12.84,14.94L14.61,16.63V23H12.92V17.9L11.14,16.21L10.3,19.93M21,23H19V3H6V16.11L4,15.69V1H21V23M6,23H4V19.78L6,20.2V23Z" /></svg>
</svg>
<svg id="mdi:fast-forward">
<svg xmlns="http://www.w3.org/2000/svg" id="mdi-fast-forward" viewBox="0 0 24 24"><path d="M13,6V18L21.5,12M4,18L12.5,12L4,6V18Z" /></svg>
</svg>
<svg id="mdi:fast-forward-outline">
<svg xmlns="http://www.w3.org/2000/svg" id="mdi-fast-forward-outline" viewBox="0 0 24 24"><path d="M15,9.9L18,12L15,14.1V9.9M6,9.9L9,12L6,14.1V9.9M13,6V18L21.5,12L13,6M4,6V18L12.5,12L4,6Z" /></svg>
</svg>
<svg id="mdi:format-font">
<svg xmlns="http://www.w3.org/2000/svg" id="mdi-format-font" viewBox="0 0 24 24"><path d="M17,8H20V20H21V21H17V20H18V17H14L12.5,20H14V21H10V20H11L17,8M18,9L14.5,16H18V9M5,3H10C11.11,3 12,3.89 12,5V16H9V11H6V16H3V5C3,3.89 3.89,3 5,3M6,5V9H9V5H6Z" /></svg>
</svg>
<svg id="mdi:gamepad-down">
<svg xmlns="http://www.w3.org/2000/svg" id="mdi-gamepad-down" viewBox="0 0 24 24"><path d="M9,2V7.5L12,10.5L15,7.5V2H9M2,9V15H7.5L10.5,12L7.5,9H2M16.5,9L13.5,12L16.5,15H22V9H16.5M12,13.5L9,16.5V22H15V16.5L12,13.5M11,18H13V20H11V18Z" /></svg>
</svg>
<svg id="mdi:gamepad-left">
<svg xmlns="http://www.w3.org/2000/svg" id="mdi-gamepad-left" viewBox="0 0 24 24"><path d="M9,2V7.5L12,10.5L15,7.5V2H9M2,9V15H7.5L10.5,12L7.5,9H2M16.5,9L13.5,12L16.5,15H22V9H16.5M4,11H6V13H4V11M12,13.5L9,16.5V22H15V16.5L12,13.5Z" /></svg>
</svg>
<svg id="mdi:gamepad-right">
<svg xmlns="http://www.w3.org/2000/svg" id="mdi-gamepad-right" viewBox="0 0 24 24"><path d="M9,2V7.5L12,10.5L15,7.5V2H9M2,9V15H7.5L10.5,12L7.5,9H2M16.5,9L13.5,12L16.5,15H22V9H16.5M18,11H20V13H18V11M12,13.5L9,16.5V22H15V16.5L12,13.5Z" /></svg>
</svg>
<svg id="mdi:gamepad-up">
<svg xmlns="http://www.w3.org/2000/svg" id="mdi-gamepad-up" viewBox="0 0 24 24"><path d="M9,2V7.5L12,10.5L15,7.5V2H9M11,4H13V6H11V4M2,9V15H7.5L10.5,12L7.5,9H2M16.5,9L13.5,12L16.5,15H22V9H16.5M12,13.5L9,16.5V22H15V16.5L12,13.5Z" /></svg>
</svg>
<svg id="mdi:glass-wine">
<svg xmlns="http://www.w3.org/2000/svg" id="mdi-glass-wine" viewBox="0 0 24 24"><path d="M15.5,21.27L14.66,21.18C13.9,21.11 13.25,20.6 13,19.87C12.47,17.91 12.47,15.83 13,13.87C15.32,13.4 17,11.37 17,9C17,7 15,2 15,2H9C9,2 7,7 7,9C7,11.38 8.67,13.42 11,13.9C11.53,15.86 11.53,17.94 11,19.9C10.76,20.62 10.12,21.13 9.37,21.21L8.5,21.3C8.5,21.3 8,21.28 8,22H16C16,21.28 15.5,21.27 15.5,21.27M9.44,7L10.44,4H13.56L14.56,7H9.44Z" /></svg>
</svg>
<svg id="mdi:gmail">
<svg xmlns="http://www.w3.org/2000/svg" id="mdi-gmail" viewBox="0 0 24 24"><path d="M20,18H18V9.25L12,13L6,9.25V18H4V6H5.2L12,10.25L18.8,6H20M20,4H4C2.89,4 2,4.89 2,6V18A2,2 0 0,0 4,20H20A2,2 0 0,0 22,18V6C22,4.89 21.1,4 20,4Z" /></svg>
</svg>
<svg id="mdi:google-chrome">
<svg xmlns="http://www.w3.org/2000/svg" id="mdi-google-chrome" viewBox="0 0 24 24"><path d="M12,20L15.46,14H15.45C15.79,13.4 16,12.73 16,12C16,10.8 15.46,9.73 14.62,9H19.41C19.79,9.93 20,10.94 20,12A8,8 0 0,1 12,20M4,12C4,10.54 4.39,9.18 5.07,8L8.54,14H8.55C9.24,15.19 10.5,16 12,16C12.45,16 12.88,15.91 13.29,15.77L10.89,19.91C7,19.37 4,16.04 4,12M15,12A3,3 0 0,1 12,15A3,3 0 0,1 9,12A3,3 0 0,1 12,9A3,3 0 0,1 15,12M12,4C14.96,4 17.54,5.61 18.92,8H12C10.06,8 8.45,9.38 8.08,11.21L5.7,7.08C7.16,5.21 9.44,4 12,4M12,2A10,10 0 0,0 2,12A10,10 0 0,0 12,22A10,10 0 0,0 22,12A10,10 0 0,0 12,2Z" /></svg>
</svg>
<svg id="mdi:google-drive">
<svg xmlns="http://www.w3.org/2000/svg" id="mdi-google-drive" viewBox="0 0 24 24"><path d="M7.71,3.5L1.15,15L4.58,21L11.13,9.5M9.73,15L6.3,21H19.42L22.85,15M22.28,14L15.42,2H8.58L8.57,2L15.43,14H22.28Z" /></svg>
</svg>
<svg id="mdi:google-translate">
<svg xmlns="http://www.w3.org/2000/svg" id="mdi-google-translate" viewBox="0 0 24 24"><path d="M20,5H10.88L10,2H4A2,2 0 0,0 2,4V17A2,2 0 0,0 4,19H11L12,22H20A2,2 0 0,0 22,20V7A2,2 0 0,0 20,5M7.17,14.59A4.09,4.09 0 0,1 3.08,10.5A4.09,4.09 0 0,1 7.17,6.41C8.21,6.41 9.16,6.78 9.91,7.5L10,7.54L8.75,8.72L8.69,8.67C8.4,8.4 7.91,8.08 7.17,8.08C5.86,8.08 4.79,9.17 4.79,10.5C4.79,11.83 5.86,12.92 7.17,12.92C8.54,12.92 9.13,12.05 9.29,11.46H7.08V9.91H11.03L11.04,10C11.08,10.19 11.09,10.38 11.09,10.59C11.09,12.94 9.5,14.59 7.17,14.59M13.2,12.88C13.53,13.5 13.94,14.06 14.39,14.58L13.85,15.11L13.2,12.88M13.97,12.12H13L12.67,11.08H16.66C16.66,11.08 16.32,12.39 15.1,13.82C14.58,13.2 14.21,12.59 13.97,12.12M21,20A1,1 0 0,1 20,21H13L15,19L14.19,16.23L15.11,15.31L17.79,18L18.5,17.27L15.81,14.59C16.71,13.56 17.41,12.34 17.73,11.08H19V10.04H15.36V9H14.32V10.04H12.36L11.18,6H20A1,1 0 0,1 21,7V20Z" /></svg>
</svg>
<svg id="mdi:greater-than">
<svg xmlns="http://www.w3.org/2000/svg" id="mdi-greater-than" viewBox="0 0 24 24"><path d="M5.5,4.14L4.5,5.86L15,12L4.5,18.14L5.5,19.86L19,12L5.5,4.14Z" /></svg>
</svg>
<svg id="mdi:home-circle">
<svg xmlns="http://www.w3.org/2000/svg" id="mdi-home-circle" viewBox="0 0 24 24"><path d="M19.07,4.93C17.22,3 14.66,1.96 12,2C9.34,1.96 6.79,3 4.94,4.93C3,6.78 1.96,9.34 2,12C1.96,14.66 3,17.21 4.93,19.06C6.78,21 9.34,22.04 12,22C14.66,22.04 17.21,21 19.06,19.07C21,17.22 22.04,14.66 22,12C22.04,9.34 21,6.78 19.07,4.93M17,12V18H13.5V13H10.5V18H7V12H5L12,5L19.5,12H17Z" /></svg>
</svg>
<svg id="mdi:image-multiple-outline">
<svg xmlns="http://www.w3.org/2000/svg" id="mdi-image-multiple-outline" viewBox="0 0 24 24"><path d="M21,17H7V3H21M21,1H7A2,2 0 0,0 5,3V17A2,2 0 0,0 7,19H21A2,2 0 0,0 23,17V3A2,2 0 0,0 21,1M3,5H1V21A2,2 0 0,0 3,23H19V21H3M15.96,10.29L13.21,13.83L11.25,11.47L8.5,15H19.5L15.96,10.29Z" /></svg>
</svg>
<svg id="mdi:image-off-outline">
<svg xmlns="http://www.w3.org/2000/svg" id="mdi-image-off-outline" viewBox="0 0 24 24"><path d="M22 20.7L3.3 2L2 3.3L3 4.3V19C3 20.1 3.9 21 5 21H19.7L20.7 22L22 20.7M5 19V6.3L12.6 13.9L11.1 15.8L9 13.1L6 17H15.7L17.7 19H5M8.8 5L6.8 3H19C20.1 3 21 3.9 21 5V17.2L19 15.2V5H8.8" /></svg>
</svg>
<svg id="mdi:keyboard-esc">
<svg xmlns="http://www.w3.org/2000/svg" id="mdi-keyboard-esc" viewBox="0 0 24 24"><path d="M1 7H7V9H3V11H7V13H3V15H7V17H1V7M11 7H15V9H11V11H13C14.11 11 15 11.9 15 13V15C15 16.11 14.11 17 13 17H9V15H13V13H11C9.9 13 9 12.11 9 11V9C9 7.9 9.9 7 11 7M19 7H21C22.11 7 23 7.9 23 9V10H21V9H19V15H21V14H23V15C23 16.11 22.11 17 21 17H19C17.9 17 17 16.11 17 15V9C17 7.9 17.9 7 19 7Z" /></svg>
</svg>
<svg id="mdi:keyboard-return">
<svg xmlns="http://www.w3.org/2000/svg" id="mdi-keyboard-return" viewBox="0 0 24 24"><path d="M19,7V11H5.83L9.41,7.41L8,6L2,12L8,18L9.41,16.58L5.83,13H21V7H19Z" /></svg>
</svg>
<svg id="mdi:keyboard-space">
<svg xmlns="http://www.w3.org/2000/svg" id="mdi-keyboard-space" viewBox="0 0 24 24"><path d="M3 15H5V19H19V15H21V19C21 20.1 20.1 21 19 21H5C3.9 21 3 20.1 3 19V15Z" /></svg>
</svg>
<svg id="mdi:keyboard-tab">
<svg xmlns="http://www.w3.org/2000/svg" id="mdi-keyboard-tab" viewBox="0 0 24 24"><path d="M20,18H22V6H20M11.59,7.41L15.17,11H1V13H15.17L11.59,16.58L13,18L19,12L13,6L11.59,7.41Z" /></svg>
</svg>
<svg id="mdi:knob">
<svg xmlns="http://www.w3.org/2000/svg" id="mdi-knob" viewBox="0 0 24 24"><path d="M12 2C6.5 2 2 6.5 2 12S6.5 22 12 22 22 17.5 22 12 17.5 2 12 2M13 10H11V4.1C11.3 4 11.7 4 12 4S12.7 4 13 4.1V10Z" /></svg>
</svg>
<svg id="mdi:less-than">
<svg xmlns="http://www.w3.org/2000/svg" id="mdi-less-than" viewBox="0 0 24 24"><path d="M18.5,4.14L19.5,5.86L8.97,12L19.5,18.14L18.5,19.86L5,12L18.5,4.14Z" /></svg>
</svg>
<svg id="mdi:menu">
<svg xmlns="http://www.w3.org/2000/svg" id="mdi-menu" viewBox="0 0 24 24"><path d="M3,6H21V8H3V6M3,11H21V13H3V11M3,16H21V18H3V16Z" /></svg>
</svg>
<svg id="mdi:message-reply-text">
<svg xmlns="http://www.w3.org/2000/svg" id="mdi-message-reply-text" viewBox="0 0 24 24"><path d="M18,8H6V6H18V8M18,11H6V9H18V11M18,14H6V12H18V14M22,4A2,2 0 0,0 20,2H4A2,2 0 0,0 2,4V16A2,2 0 0,0 4,18H18L22,22V4Z" /></svg>
</svg>
<svg id="mdi:microphone-off">
<svg xmlns="http://www.w3.org/2000/svg" id="mdi-microphone-off" viewBox="0 0 24 24"><path d="M19,11C19,12.19 18.66,13.3 18.1,14.28L16.87,13.05C17.14,12.43 17.3,11.74 17.3,11H19M15,11.16L9,5.18V5A3,3 0 0,1 12,2A3,3 0 0,1 15,5V11L15,11.16M4.27,3L21,19.73L19.73,21L15.54,16.81C14.77,17.27 13.91,17.58 13,17.72V21H11V17.72C7.72,17.23 5,14.41 5,11H6.7C6.7,14 9.24,16.1 12,16.1C12.81,16.1 13.6,15.91 14.31,15.58L12.65,13.92L12,14A3,3 0 0,1 9,11V10.28L3,4.27L4.27,3Z" /></svg>
</svg>
<svg id="mdi:minus-circle">
<svg xmlns="http://www.w3.org/2000/svg" id="mdi-minus-circle" viewBox="0 0 24 24"><path d="M17,13H7V11H17M12,2A10,10 0 0,0 2,12A10,10 0 0,0 12,22A10,10 0 0,0 22,12A10,10 0 0,0 12,2Z" /></svg>
</svg>
<svg id="mdi:minus-thick">
<svg xmlns="http://www.w3.org/2000/svg" id="mdi-minus-thick" viewBox="0 0 24 24"><path d="M20 14H4V10H20" /></svg>
</svg>
<svg id="mdi:monitor">
<svg xmlns="http://www.w3.org/2000/svg" id="mdi-monitor" viewBox="0 0 24 24"><path d="M21,16H3V4H21M21,2H3C1.89,2 1,2.89 1,4V16A2,2 0 0,0 3,18H10V20H8V22H16V20H14V18H21A2,2 0 0,0 23,16V4C23,2.89 22.1,2 21,2Z" /></svg>
</svg>
<svg id="mdi:monitor-screenshot">
<svg xmlns="http://www.w3.org/2000/svg" id="mdi-monitor-screenshot" viewBox="0 0 24 24"><path d="M9,6H5V10H7V8H9M19,10H17V12H15V14H19M21,16H3V4H21M21,2H3C1.89,2 1,2.89 1,4V16A2,2 0 0,0 3,18H10V20H8V22H16V20H14V18H21A2,2 0 0,0 23,16V4C23,2.89 22.1,2 21,2" /></svg>
</svg>
<svg id="mdi:mouse-left-click">
<svg xmlns="http://www.w3.org/2000/svg" id="mdi-mouse-left-click" viewBox="0 0 24 24"><path d="M13 9V1.07C16.94 1.56 20 4.92 20 9H13M6.34 20.66C4.84 19.16 4 17.12 4 15V11H20V15C20 17.12 19.16 19.16 17.66 20.66C16.16 22.16 14.12 23 12 23C9.88 23 7.84 22.16 6.34 20.66M11 9V1.07C10.3 1.16 9.63 1.33 9 1.59C6.67 2.53 4.89 4.53 4.25 7C4.09 7.64 4 8.31 4 9H11M6.34 7C6.82 5.65 7.78 4.5 9 3.81V7H6.34Z" /></svg>
</svg>
<svg id="mdi:mouse-right-click">
<svg xmlns="http://www.w3.org/2000/svg" id="mdi-mouse-right-click" viewBox="0 0 24 24"><path d="M13 9V1.07C13.7 1.16 14.37 1.33 15 1.59C17.33 2.53 19.11 4.53 19.75 7C19.91 7.64 20 8.31 20 9H13M17.66 7C17.18 5.65 16.23 4.5 15 3.81V7H17.66M11 9V1.07C7.06 1.56 4 4.92 4 9H11M6.34 20.66C4.84 19.16 4 17.12 4 15V11H20V15C20 17.12 19.16 19.16 17.66 20.66C16.16 22.16 14.12 23 12 23C9.88 23 7.84 22.16 6.34 20.66Z" /></svg>
</svg>
<svg id="mdi:mouse-scroll-wheel">
<svg xmlns="http://www.w3.org/2000/svg" id="mdi-mouse-scroll-wheel" viewBox="0 0 24 24"><path d="M11 1.07C7.05 1.56 4 4.92 4 9H11V7.73C10.4 7.39 10 6.74 10 6V4C10 3.26 10.4 2.61 11 2.27V1.07M13 9V7.73C13.6 7.39 14 6.74 14 6V4C14 3.26 13.6 2.61 13 2.27V1.07C16.94 1.56 20 4.92 20 9H13M4 15C4 17.12 4.84 19.16 6.34 20.66C7.84 22.16 9.88 23 12 23C14.12 23 16.16 22.16 17.66 20.66C19.16 19.16 20 17.12 20 15V11H4V15M13 6V4C13 3.45 12.55 3 12 3C11.45 3 11 3.45 11 4V6C11 6.55 11.45 7 12 7C12.55 7 13 6.55 13 6Z" /></svg>
</svg>
<svg id="mdi:nintendo-switch">
<svg xmlns="http://www.w3.org/2000/svg" id="mdi-nintendo-switch" viewBox="0 0 24 24"><path d="M10.04,20.4H7.12C6.19,20.4 5.3,20 4.64,19.36C4,18.7 3.6,17.81 3.6,16.88V7.12C3.6,6.19 4,5.3 4.64,4.64C5.3,4 6.19,3.62 7.12,3.62H10.04V20.4M7.12,2A5.12,5.12 0 0,0 2,7.12V16.88C2,19.71 4.29,22 7.12,22H11.65V2H7.12M5.11,8C5.11,9.04 5.95,9.88 7,9.88C8.03,9.88 8.87,9.04 8.87,8C8.87,6.96 8.03,6.12 7,6.12C5.95,6.12 5.11,6.96 5.11,8M17.61,11C18.72,11 19.62,11.89 19.62,13C19.62,14.12 18.72,15 17.61,15C16.5,15 15.58,14.12 15.58,13C15.58,11.89 16.5,11 17.61,11M16.88,22A5.12,5.12 0 0,0 22,16.88V7.12C22,4.29 19.71,2 16.88,2H13.65V22H16.88Z" /></svg>
</svg>
<svg id="mdi:onepassword">
<svg xmlns="http://www.w3.org/2000/svg" id="mdi-onepassword" viewBox="0 0 24 24"><path d="M12,1C5.92,1 1,5.92 1,12C1,18.08 5.92,23 12,23C18.08,23 23,18.08 23,12C23,5.92 18.08,1 12,1M12,20A8,8 0 0,1 4,12A8,8 0 0,1 12,4A8,8 0 0,1 20,12A8,8 0 0,1 12,20M13,13.5C13,14.13 13.4,14.7 14,14.91V18H10V11.91C10.78,11.64 11.19,10.8 10.93,10C10.78,9.58 10.44,9.24 10,9.09V6H14V12.09C13.4,12.3 13,12.87 13,13.5Z" /></svg>
</svg>
<svg id="mdi:open-in-app">
<svg xmlns="http://www.w3.org/2000/svg" id="mdi-open-in-app" viewBox="0 0 24 24"><path d="M12,10L8,14H11V20H13V14H16M19,4H5C3.89,4 3,4.9 3,6V18A2,2 0 0,0 5,20H9V18H5V8H19V18H15V20H19A2,2 0 0,0 21,18V6A2,2 0 0,0 19,4Z" /></svg>
</svg>
<svg id="mdi:pause-box">
<svg xmlns="http://www.w3.org/2000/svg" id="mdi-pause-box" viewBox="0 0 24 24"><path d="M19 3H5C3.9 3 3 3.9 3 5V19C3 20.11 3.9 21 5 21H19C20.11 21 21 20.11 21 19V5C21 3.89 20.1 3 19 3M11 16H9V8H11V16M15 16H13V8H15V16Z" /></svg>
</svg>
<svg id="mdi:pause-box-outline">
<svg xmlns="http://www.w3.org/2000/svg" id="mdi-pause-box-outline" viewBox="0 0 24 24"><path d="M19 3H5C3.9 3 3 3.9 3 5V19C3 20.1 3.9 21 5 21H19C20.1 21 21 20.1 21 19V5C21 3.9 20.1 3 19 3M19 19H5V5H19V19M13 16V8H15V16H13M9 16V8H11V16H9" /></svg>
</svg>
<svg id="mdi:play-pause">
<svg xmlns="http://www.w3.org/2000/svg" id="mdi-play-pause" viewBox="0 0 24 24"><path d="M3,5V19L11,12M13,19H16V5H13M18,5V19H21V5" /></svg>
</svg>
<svg id="mdi:plus-circle">
<svg xmlns="http://www.w3.org/2000/svg" id="mdi-plus-circle" viewBox="0 0 24 24"><path d="M17,13H13V17H11V13H7V11H11V7H13V11H17M12,2A10,10 0 0,0 2,12A10,10 0 0,0 12,22A10,10 0 0,0 22,12A10,10 0 0,0 12,2Z" /></svg>
</svg>
<svg id="mdi:plus-thick">
<svg xmlns="http://www.w3.org/2000/svg" id="mdi-plus-thick" viewBox="0 0 24 24"><path d="M20 14H14V20H10V14H4V10H10V4H14V10H20V14Z" /></svg>
</svg>
<svg id="mdi:presentation">
<svg xmlns="http://www.w3.org/2000/svg" id="mdi-presentation" viewBox="0 0 24 24"><path d="M2,3H10A2,2 0 0,1 12,1A2,2 0 0,1 14,3H22V5H21V16H15.25L17,22H15L13.25,16H10.75L9,22H7L8.75,16H3V5H2V3M5,5V14H19V5H5Z" /></svg>
</svg>
<svg id="mdi:qrcode">
<svg xmlns="http://www.w3.org/2000/svg" id="mdi-qrcode" viewBox="0 0 24 24"><path d="M3,11H5V13H3V11M11,5H13V9H11V5M9,11H13V15H11V13H9V11M15,11H17V13H19V11H21V13H19V15H21V19H19V21H17V19H13V21H11V17H15V15H17V13H15V11M19,19V15H17V19H19M15,3H21V9H15V3M17,5V7H19V5H17M3,3H9V9H3V3M5,5V7H7V5H5M3,15H9V21H3V15M5,17V19H7V17H5Z" /></svg>
</svg>
<svg id="mdi:qrcode-scan">
<svg xmlns="http://www.w3.org/2000/svg" id="mdi-qrcode-scan" viewBox="0 0 24 24"><path d="M4,4H10V10H4V4M20,4V10H14V4H20M14,15H16V13H14V11H16V13H18V11H20V13H18V15H20V18H18V20H16V18H13V20H11V16H14V15M16,15V18H18V15H16M4,20V14H10V20H4M6,6V8H8V6H6M16,6V8H18V6H16M6,16V18H8V16H6M4,11H6V13H4V11M9,11H13V15H11V13H9V11M11,6H13V10H11V6M2,2V6H0V2A2,2 0 0,1 2,0H6V2H2M22,0A2,2 0 0,1 24,2V6H22V2H18V0H22M2,18V22H6V24H2A2,2 0 0,1 0,22V18H2M22,22V18H24V22A2,2 0 0,1 22,24H18V22H22Z" /></svg>
</svg>
<svg id="mdi:recycle-variant">
<svg xmlns="http://www.w3.org/2000/svg" id="mdi-recycle-variant" viewBox="0 0 24 24"><path d="M7.17 7.91L8.9 8.91L12.08 3.42L14.33 7.31L11.73 8.81L17.19 10.27L18.66 4.81L16.06 6.31L13.81 2.41C13.26 1.45 12.03 1.12 11.08 1.68C10.81 1.83 10.58 2.05 10.41 2.31M10 20V18L3.66 18L5.9 14.1L8.5 15.6L7.04 10.14L1.57 11.6L4.17 13.1L1.92 17C1.37 17.96 1.7 19.18 2.65 19.73C2.92 19.89 3.22 19.97 3.54 20M19.06 11.5L17.32 12.5L20.5 18H16V15L12 19L16 23V20H20.5C21.61 20 22.5 19.11 22.5 18C22.5 17.69 22.42 17.38 22.28 17.11Z" /></svg>
</svg>
<svg id="mdi:repeat">
<svg xmlns="http://www.w3.org/2000/svg" id="mdi-repeat" viewBox="0 0 24 24"><path d="M17,17H7V14L3,18L7,22V19H19V13H17M7,7H17V10L21,6L17,2V5H5V11H7V7Z" /></svg>
</svg>
<svg id="mdi:rewind">
<svg xmlns="http://www.w3.org/2000/svg" id="mdi-rewind" viewBox="0 0 24 24"><path d="M11.5,12L20,18V6M11,18V6L2.5,12L11,18Z" /></svg>
</svg>
<svg id="mdi:run-fast">
<svg xmlns="http://www.w3.org/2000/svg" id="mdi-run-fast" viewBox="0 0 24 24"><path d="M16.5,5.5A2,2 0 0,0 18.5,3.5A2,2 0 0,0 16.5,1.5A2,2 0 0,0 14.5,3.5A2,2 0 0,0 16.5,5.5M12.9,19.4L13.9,15L16,17V23H18V15.5L15.9,13.5L16.5,10.5C17.89,12.09 19.89,13 22,13V11C20.24,11.03 18.6,10.11 17.7,8.6L16.7,7C16.34,6.4 15.7,6 15,6C14.7,6 14.5,6.1 14.2,6.1L9,8.3V13H11V9.6L12.8,8.9L11.2,17L6.3,16L5.9,18L12.9,19.4M4,9A1,1 0 0,1 3,8A1,1 0 0,1 4,7H7V9H4M5,5A1,1 0 0,1 4,4A1,1 0 0,1 5,3H10V5H5M3,13A1,1 0 0,1 2,12A1,1 0 0,1 3,11H7V13H3Z" /></svg>
</svg>
<svg id="mdi:security">
<svg xmlns="http://www.w3.org/2000/svg" id="mdi-security" viewBox="0 0 24 24"><path d="M12,12H19C18.47,16.11 15.72,19.78 12,20.92V12H5V6.3L12,3.19M12,1L3,5V11C3,16.55 6.84,21.73 12,23C17.16,21.73 21,16.55 21,11V5L12,1Z" /></svg>
</svg>
<svg id="mdi:shield-search">
<svg xmlns="http://www.w3.org/2000/svg" id="mdi-shield-search" viewBox="0 0 24 24"><path d="M12,9A3,3 0 0,1 15,12A3,3 0 0,1 12,15A3,3 0 0,1 9,12A3,3 0 0,1 12,9M17.86,19.31C16.23,21.22 14.28,22.45 12,23C9.44,22.39 7.3,20.93 5.58,18.63C3.86,16.34 3,13.8 3,11V5L12,1L21,5V11C21,13.39 20.36,15.61 19.08,17.67L16.17,14.76C16.69,13.97 17,13 17,12A5,5 0 0,0 12,7A5,5 0 0,0 7,12A5,5 0 0,0 12,17C13,17 13.97,16.69 14.76,16.17L17.86,19.31Z" /></svg>
</svg>
<svg id="mdi:skew-less">
<svg xmlns="http://www.w3.org/2000/svg" id="mdi-skew-less" viewBox="0 0 24 24"><path d="M17.5,11L15.41,20H10.5L12.59,11H17.5M20,9H11L8,22H17L20,9M4,6L8,2V5H16V7H8V10L4,6Z" /></svg>
</svg>
<svg id="mdi:skew-more">
<svg xmlns="http://www.w3.org/2000/svg" id="mdi-skew-more" viewBox="0 0 24 24"><path d="M12.5,11L10.41,20H5.5L7.59,11H12.5M15,9H6L3,22H12L15,9M21,6L17,2V5H9V7H17V10L21,6Z" /></svg>
</svg>
<svg id="mdi:skip-next">
<svg xmlns="http://www.w3.org/2000/svg" id="mdi-skip-next" viewBox="0 0 24 24"><path d="M16,18H18V6H16M6,18L14.5,12L6,6V18Z" /></svg>
</svg>
<svg id="mdi:skip-previous">
<svg xmlns="http://www.w3.org/2000/svg" id="mdi-skip-previous" viewBox="0 0 24 24"><path d="M6,18V6H8V18H6M9.5,12L18,6V18L9.5,12Z" /></svg>
</svg>
<svg id="mdi:speedometer">
<svg xmlns="http://www.w3.org/2000/svg" id="mdi-speedometer" viewBox="0 0 24 24"><path d="M12,16A3,3 0 0,1 9,13C9,11.88 9.61,10.9 10.5,10.39L20.21,4.77L14.68,14.35C14.18,15.33 13.17,16 12,16M12,3C13.81,3 15.5,3.5 16.97,4.32L14.87,5.53C14,5.19 13,5 12,5A8,8 0 0,0 4,13C4,15.21 4.89,17.21 6.34,18.65H6.35C6.74,19.04 6.74,19.67 6.35,20.06C5.96,20.45 5.32,20.45 4.93,20.07V20.07C3.12,18.26 2,15.76 2,13A10,10 0 0,1 12,3M22,13C22,15.76 20.88,18.26 19.07,20.07V20.07C18.68,20.45 18.05,20.45 17.66,20.06C17.27,19.67 17.27,19.04 17.66,18.65V18.65C19.11,17.2 20,15.21 20,13C20,12 19.81,11 19.46,10.1L20.67,8C21.5,9.5 22,11.18 22,13Z" /></svg>
</svg>
<svg id="mdi:square-circle-outline">
<svg xmlns="http://www.w3.org/2000/svg" id="mdi-square-circle-outline" viewBox="0 0 24 24"><path d="M18 12C18 8.69 15.31 6 12 6C8.69 6 6 8.69 6 12C6 15.31 8.69 18 12 18C15.31 18 18 15.31 18 12M12 8C14.21 8 16 9.8 16 12C16 14.21 14.21 16 12 16C9.8 16 8 14.21 8 12C8 9.8 9.8 8 12 8M20 4H4V20H20V4M22 2V22H2V2H22Z" /></svg>
</svg>
<svg id="mdi:undo">
<svg xmlns="http://www.w3.org/2000/svg" id="mdi-undo" viewBox="0 0 24 24"><path d="M12.5,8C9.85,8 7.45,9 5.6,10.6L2,7V16H11L7.38,12.38C8.77,11.22 10.54,10.5 12.5,10.5C16.04,10.5 19.05,12.81 20.1,16L22.47,15.22C21.08,11.03 17.15,8 12.5,8Z" /></svg>
</svg>
<svg id="mdi:usb">
<svg xmlns="http://www.w3.org/2000/svg" id="mdi-usb" viewBox="0 0 24 24"><path d="M15,7V11H16V13H13V5H15L12,1L9,5H11V13H8V10.93C8.7,10.56 9.2,9.85 9.2,9C9.2,7.78 8.21,6.8 7,6.8C5.78,6.8 4.8,7.78 4.8,9C4.8,9.85 5.3,10.56 6,10.93V13A2,2 0 0,0 8,15H11V18.05C10.29,18.41 9.8,19.15 9.8,20A2.2,2.2 0 0,0 12,22.2A2.2,2.2 0 0,0 14.2,20C14.2,19.15 13.71,18.41 13,18.05V15H16A2,2 0 0,0 18,13V11H19V7H15Z" /></svg>
</svg>
<svg id="mdi:volume-high">
<svg xmlns="http://www.w3.org/2000/svg" id="mdi-volume-high" viewBox="0 0 24 24"><path d="M14,3.23V5.29C16.89,6.15 19,8.83 19,12C19,15.17 16.89,17.84 14,18.7V20.77C18,19.86 21,16.28 21,12C21,7.72 18,4.14 14,3.23M16.5,12C16.5,10.23 15.5,8.71 14,7.97V16C15.5,15.29 16.5,13.76 16.5,12M3,9V15H7L12,20V4L7,9H3Z" /></svg>
</svg>
<svg id="mdi:volume-minus">
<svg xmlns="http://www.w3.org/2000/svg" id="mdi-volume-minus" viewBox="0 0 24 24"><path d="M3,9H7L12,4V20L7,15H3V9M14,11H22V13H14V11Z" /></svg>
</svg>
<svg id="mdi:volume-mute">
<svg xmlns="http://www.w3.org/2000/svg" id="mdi-volume-mute" viewBox="0 0 24 24"><path d="M3,9H7L12,4V20L7,15H3V9M16.59,12L14,9.41L15.41,8L18,10.59L20.59,8L22,9.41L19.41,12L22,14.59L20.59,16L18,13.41L15.41,16L14,14.59L16.59,12Z" /></svg>
</svg>
<svg id="mdi:volume-plus">
<svg xmlns="http://www.w3.org/2000/svg" id="mdi-volume-plus" viewBox="0 0 24 24"><path d="M3,9H7L12,4V20L7,15H3V9M14,11H17V8H19V11H22V13H19V16H17V13H14V11Z" /></svg>
</svg>
<svg id="mdi:window-restore">
<svg xmlns="http://www.w3.org/2000/svg" id="mdi-window-restore" viewBox="0 0 24 24"><path d="M4,8H8V4H20V16H16V20H4V8M16,8V14H18V6H10V8H16M6,12V18H14V12H6Z" /></svg>
</svg>
</defs>/* end glyphs */
<style>/* inherit to force styles through use tags */
svg path {
    fill: inherit;
}

/* font and background color specifications */
svg.keymap {
    font-family: SFMono-Regular,Consolas,Liberation Mono,Menlo,monospace;
    font-size: 14px;
    font-kerning: normal;
    text-rendering: optimizeLegibility;
    fill: #24292e;
}

/* default key styling */
rect.key {
    fill: #f6f8fa;
}

rect.key, rect.combo {
    stroke: #c9cccf;
    stroke-width: 1;
}

/* default key side styling, only used is draw_key_sides is set */
rect.side {
    filter: brightness(90%);
}

/* color accent for combo boxes */
rect.combo, rect.combo-separate {
    fill: #cdf;
}

/* color accent for held keys */
rect.held, rect.combo.held {
    fill: #fdd;
}

/* color accent for ghost (optional) keys */
rect.ghost, rect.combo.ghost {
    stroke-dasharray: 4, 4;
    stroke-width: 2;
}

text {
    text-anchor: middle;
    dominant-baseline: middle;
}

/* styling for layer labels */
text.label {
    font-weight: bold;
    text-anchor: start;
    stroke: white;
    stroke-width: 4;
    paint-order: stroke;
}

/* styling for optional footer */
text.footer {
    text-anchor: end;
    dominant-baseline: auto;
    stroke: white;
    stroke-width: 4;
    paint-order: stroke;
}

/* styling for combo tap, and key non-tap label text */
text.combo, text.hold, text.shifted, text.left, text.right {
    font-size: 11px;
}

text.hold {
    text-anchor: middle;
    dominant-baseline: auto;
}

text.shifted {
    text-anchor: middle;
    dominant-baseline: hanging;
}

text.left {
    text-anchor: start;
}

text.right {
    text-anchor: end;
}

text.layer-activator {
    text-decoration: underline;
}

/* styling for hold/shifted label text in combo box */
text.combo.hold, text.combo.shifted, text.combo.left, text.combo.right {
    font-size: 8px;
}

/* lighter symbol for transparent keys */
text.trans {
    fill: #7b7e81;
}

/* styling for combo dendrons */
path.combo {
    stroke-width: 1;
    stroke: gray;
    fill: none;
}

/* Start Tabler Icons Cleanup */
/* cannot use height/width with glyphs */
.icon-tabler > path {
    fill: inherit;
    stroke: inherit;
    stroke-width: 2;
}
/* hide tabler's default box */
.icon-tabler > path[stroke="none"][fill="none"] {
    visibility: hidden;
}
/* End Tabler Icons Cleanup */

svg.keymap { fill: #d1d6db; }
rect.key { fill: #3f4750; }
rect.key, rect.combo { stroke: #60666c; }
rect.combo, rect.combo-separate { fill: #1f3d7a; }
rect.held, rect.combo.held { fill: #854747; }
text.label, text.footer { stroke: black; }
text.trans { fill: #7e8184; }
path.combo { stroke: #7f7f7f; }

/* inherit to force styles through use tags */
svg path {
    fill: inherit;
}

/* font and background color specifications */
svg.keymap {
    font-family: SFMono-Regular,Consolas,Liberation Mono,Menlo,monospace;
    font-size: 12px;
    font-kerning: normal;
    text-rendering: optimizeLegibility;
    fill: #c1ccd9;
}

/* default key styling */
rect.key {
    fill: #353b40;
    stroke: #46515c;
    stroke-width: 2;
}

/* highlighted key styling */
rect.hilite {
    fill: #4d5b6d;
    stroke: #46515c;
    stroke-width: 2;
}

/* default key side styling, only used is draw_key_sides is set */
rect.side {
    filter: brightness(90%);
}

/* color accent for combo boxes */
rect.combo, rect.combo-separate {
    fill: #112342;
    stroke: #404a5c;
    stroke-width: 2px;
}

/* color accent for held keys */
rect.held, rect.combo.held {
    fill: #fdd;
    stroke: #6b0d06;
}

/* color accent for LHS combos */
rect.lhs {
    fill: #562634;
    stroke: #46515c;
}
rect.lhs-main {
    fill: #952753;
    stroke: #46515c;
}

/* color accent for RHS combos */
rect.rhs {
    fill: #1d435f;
    stroke: #46515c;
}
rect.rhs-main {
    fill: #246397;
    stroke: #46515c;
}

/* color accent for special combo */
rect.combo-special {
    fill: yellow;
    stroke: #e3af05;
}

/* color accent for combos the must include one of the keys with this same color */
rect.combo-any {
    fill: #81c77d;
    stroke: #094206;
}

.combo-special, .combo-any, .held {
    fill: #000;
}

/* color accent for ghost (optional) keys */
rect.ghost, rect.combo.ghost {
    stroke-dasharray: 4, 4;
    stroke-width: 2;
    fill: #252b30;
}

text {
    text-anchor: middle;
    dominant-baseline: middle;
}

/* styling for layer labels */
text.label {
    font-weight: bold;
    font-size: 16px;
    text-anchor: start;
    stroke: white;
    fill: #555;
    stroke-width: 0;
    paint-order: stroke;
}

/* styling for combo tap, and key hold/shifted label text */
text.combo, text.hold, text.shifted {
    font-size: 10px;
    font-weight: bold;
}

text.hold {
    text-anchor: middle;
    dominant-baseline: auto;
}

text.shifted {
    text-anchor: middle;
    dominant-baseline: hanging;
}

/* styling for hold/shifted label text in combo box */
text.combo.hold, text.combo.shifted {
    font-size: 8px;
}

/* lighter symbol for transparent keys */
text.trans {
    fill: #7b7e81;
}

/* other special text colors */
.green {
    fill: #378b2e;
}
.red {
    fill: #c62843;
}
.yellow {
    fill: #eff34b;
}
.blue {
    fill: #1b57c9;
}

/* styling for combo dendrons */
path.combo {
    stroke-width: 1;
    stroke: gray;
    fill: none;
}

/* Start Tabler Icons Cleanup */
/* cannot use height/width with glyphs */
.icon-tabler > path {
    fill: inherit;
    stroke: inherit;
    stroke-width: 2;
}
/* hide tabler's default box */
.icon-tabler > path[stroke="none"][fill="none"] {
    visibility: hidden;
}
/* End Tabler Icons Cleanup */
/* styling for layer labels */
text.label {
  display: none;
}
</style>
<g transform="translate(30, 0)" class="layer-Contextual Combos - Keyboard">
<text x="0" y="28" class="label" id="Contextual-Combos---Keyboard">Contextual Combos - Keyboard:</text>
<g transform="translate(0, 92)">
<g transform="translate(34, 60)" class="key keypos-0">
<rect rx="6" ry="6" x="-32" y="-32" width="64" height="64" class="key"/>
</g>
<g transform="translate(102, 42)" class="key keypos-1">
<rect rx="6" ry="6" x="-32" y="-32" width="64" height="64" class="key"/>
</g>
<g transform="translate(170, 34)" class="key keypos-2">
<rect rx="6" ry="6" x="-32" y="-32" width="64" height="64" class="key"/>
</g>
<g transform="translate(238, 42)" class="key keypos-3">
<rect rx="6" ry="6" x="-32" y="-32" width="64" height="64" class="key"/>
</g>
<g transform="translate(306, 51)" class="key keypos-4">
<rect rx="6" ry="6" x="-32" y="-32" width="64" height="64" class="key"/>
</g>
<g transform="translate(578, 51)" class="key keypos-5">
<rect rx="6" ry="6" x="-32" y="-32" width="64" height="64" class="key"/>
</g>
<g transform="translate(646, 42)" class="key keypos-6">
<rect rx="6" ry="6" x="-32" y="-32" width="64" height="64" class="key"/>
</g>
<g transform="translate(714, 34)" class="key keypos-7">
<rect rx="6" ry="6" x="-32" y="-32" width="64" height="64" class="key"/>
</g>
<g transform="translate(782, 42)" class="key keypos-8">
<rect rx="6" ry="6" x="-32" y="-32" width="64" height="64" class="key"/>
</g>
<g transform="translate(850, 60)" class="key keypos-9">
<rect rx="6" ry="6" x="-32" y="-32" width="64" height="64" class="key"/>
</g>
<g transform="translate(34, 128)" class="key keypos-10">
<rect rx="6" ry="6" x="-32" y="-32" width="64" height="64" class="key"/>
</g>
<g transform="translate(102, 110)" class="key keypos-11">
<rect rx="6" ry="6" x="-32" y="-32" width="64" height="64" class="key"/>
</g>
<g transform="translate(170, 102)" class="key keypos-12">
<rect rx="6" ry="6" x="-32" y="-32" width="64" height="64" class="key"/>
</g>
<g transform="translate(238, 110)" class="key keypos-13">
<rect rx="6" ry="6" x="-32" y="-32" width="64" height="64" class="key"/>
</g>
<g transform="translate(306, 119)" class="key keypos-14">
<rect rx="6" ry="6" x="-32" y="-32" width="64" height="64" class="key"/>
</g>
<g transform="translate(578, 119)" class="key keypos-15">
<rect rx="6" ry="6" x="-32" y="-32" width="64" height="64" class="key"/>
</g>
<g transform="translate(646, 110)" class="key keypos-16">
<rect rx="6" ry="6" x="-32" y="-32" width="64" height="64" class="key"/>
</g>
<g transform="translate(714, 102)" class="key keypos-17">
<rect rx="6" ry="6" x="-32" y="-32" width="64" height="64" class="key"/>
</g>
<g transform="translate(782, 110)" class="key keypos-18">
<rect rx="6" ry="6" x="-32" y="-32" width="64" height="64" class="key"/>
</g>
<g transform="translate(850, 128)" class="key keypos-19">
<rect rx="6" ry="6" x="-32" y="-32" width="64" height="64" class="key"/>
</g>
<g transform="translate(34, 196)" class="key keypos-20">
<rect rx="6" ry="6" x="-32" y="-32" width="64" height="64" class="key"/>
</g>
<g transform="translate(102, 178)" class="key keypos-21">
<rect rx="6" ry="6" x="-32" y="-32" width="64" height="64" class="key"/>
</g>
<g transform="translate(170, 170)" class="key keypos-22">
<rect rx="6" ry="6" x="-32" y="-32" width="64" height="64" class="key"/>
</g>
<g transform="translate(238, 178)" class="key keypos-23">
<rect rx="6" ry="6" x="-32" y="-32" width="64" height="64" class="key"/>
</g>
<g transform="translate(306, 187)" class="key keypos-24">
<rect rx="6" ry="6" x="-32" y="-32" width="64" height="64" class="key"/>
</g>
<g transform="translate(578, 187)" class="key keypos-25">
<rect rx="6" ry="6" x="-32" y="-32" width="64" height="64" class="key"/>
</g>
<g transform="translate(646, 178)" class="key keypos-26">
<rect rx="6" ry="6" x="-32" y="-32" width="64" height="64" class="key"/>
</g>
<g transform="translate(714, 170)" class="key keypos-27">
<rect rx="6" ry="6" x="-32" y="-32" width="64" height="64" class="key"/>
</g>
<g transform="translate(782, 178)" class="key keypos-28">
<rect rx="6" ry="6" x="-32" y="-32" width="64" height="64" class="key"/>
</g>
<g transform="translate(850, 196)" class="key keypos-29">
<rect rx="6" ry="6" x="-32" y="-32" width="64" height="64" class="key"/>
</g>
<g transform="translate(204, 249)" class="key ghost keypos-30">
<rect rx="6" ry="6" x="-32" y="-32" width="64" height="64" class="key ghost"/>
</g>
<g transform="translate(279, 259) rotate(15.0)" class="key keypos-31">
<rect rx="6" ry="6" x="-32" y="-32" width="64" height="64" class="key"/>
</g>
<g transform="translate(358, 272) rotate(30.0)" class="key keypos-32">
<rect rx="6" ry="6" x="-32" y="-49" width="64" height="98" class="key"/>
</g>
<g transform="translate(526, 272) rotate(-30.0)" class="key keypos-33">
<rect rx="6" ry="6" x="-32" y="-49" width="64" height="98" class="key"/>
</g>
<g transform="translate(605, 259) rotate(-15.0)" class="key keypos-34">
<rect rx="6" ry="6" x="-32" y="-32" width="64" height="64" class="key"/>
</g>
<g transform="translate(680, 249)" class="key ghost keypos-35">
<rect rx="6" ry="6" x="-32" y="-32" width="64" height="64" class="key ghost"/>
</g>
<g class="combo combopos-0">
<path d="M214,-21 h-106 a6.0,6.0 0 0 0 -6.0,6.0 v35" class="combo"/>
<path d="M214,-21 h-38 a6.0,6.0 0 0 0 -6.0,6.0 v27" class="combo"/>
<path d="M214,-21 h86 a6.0,6.0 0 0 1 6.0,6.0 v44" class="combo"/>
<rect rx="6" ry="6" x="187" y="-36" width="55" height="30" class="combo"/>
<text x="214" y="-21" class="combo tap">Boot</text>
</g>
<g class="combo combopos-1">
<path d="M670,-21 h-86 a6.0,6.0 0 0 0 -6.0,6.0 v44" class="combo"/>
<path d="M670,-21 h38 a6.0,6.0 0 0 1 6.0,6.0 v27" class="combo"/>
<path d="M670,-21 h106 a6.0,6.0 0 0 1 6.0,6.0 v35" class="combo"/>
<rect rx="6" ry="6" x="642" y="-36" width="55" height="30" class="combo"/>
<text x="670" y="-21" class="combo tap">Boot</text>
</g>
<g class="combo combopos-2">
<path d="M214,47 h-106 a6.0,6.0 0 0 0 -6.0,6.0 v35" class="combo"/>
<path d="M214,47 h-38 a6.0,6.0 0 0 0 -6.0,6.0 v27" class="combo"/>
<path d="M214,47 h86 a6.0,6.0 0 0 1 6.0,6.0 v44" class="combo"/>
<rect rx="6" ry="6" x="187" y="32" width="55" height="30" class="combo"/>
<text x="214" y="47" class="combo tap">Reset</text>
</g>
<g class="combo combopos-3">
<path d="M670,47 h-86 a6.0,6.0 0 0 0 -6.0,6.0 v44" class="combo"/>
<path d="M670,47 h38 a6.0,6.0 0 0 1 6.0,6.0 v27" class="combo"/>
<path d="M670,47 h106 a6.0,6.0 0 0 1 6.0,6.0 v35" class="combo"/>
<rect rx="6" ry="6" x="642" y="32" width="55" height="30" class="combo"/>
<text x="670" y="47" class="combo tap">Reset</text>
</g>
<g class="combo combopos-4">
<path d="M214,115 h-106 a6.0,6.0 0 0 0 -6.0,6.0 v35" class="combo"/>
<path d="M214,115 h-38 a6.0,6.0 0 0 0 -6.0,6.0 v27" class="combo"/>
<path d="M214,115 h86 a6.0,6.0 0 0 1 6.0,6.0 v44" class="combo"/>
<rect rx="6" ry="6" x="187" y="100" width="55" height="30" class="combo"/>
<text x="214" y="115" class="combo tap">BT-Clear</text>
</g>
<g class="combo combopos-5">
<path d="M670,115 h-86 a6.0,6.0 0 0 0 -6.0,6.0 v44" class="combo"/>
<path d="M670,115 h38 a6.0,6.0 0 0 1 6.0,6.0 v27" class="combo"/>
<path d="M670,115 h106 a6.0,6.0 0 0 1 6.0,6.0 v35" class="combo"/>
<rect rx="6" ry="6" x="642" y="100" width="55" height="30" class="combo"/>
<text x="670" y="115" class="combo tap">BT-Clear</text>
</g>
<g class="combo combopos-6">
<path d="M442,272 l-61,0" class="combo"/>
<path d="M442,272 l61,0" class="combo"/>
<rect rx="6" ry="6" x="407" y="257" width="70" height="30" class="combo"/>
<text x="442" y="272" class="combo tap">CapsLock</text>
</g>
<g class="combo combopos-7">
<path d="M442,314 h-157 a6.0,6.0 0 0 1 -6.0,-6.0 v-27" class="combo"/>
<path d="M442,314 h157 a6.0,6.0 0 0 0 6.0,-6.0 v-27" class="combo"/>
<rect rx="6" ry="6" x="407" y="299" width="70" height="30" class="combo"/>
<text x="442" y="314" class="combo tap">CapsWord</text>
</g>
</g>
</g>
</svg>
